<?xml version="1.0" standalone="no"?>
<!DOCTYPE svg PUBLIC "-//W3C//DTD SVG 20010904//EN"
 "http://www.w3.org/TR/2001/REC-SVG-20010904/DTD/svg10.dtd">
<svg version="1.0" xmlns="http://www.w3.org/2000/svg"
 width="4512.000000pt" height="4512.000000pt" viewBox="0 0 4512.000000 4512.000000"
 preserveAspectRatio="xMidYMid meet">
<metadata>
Created by potrace 1.14, written by Peter Selinger 2001-2017
</metadata>
<g transform="translate(0.000000,4512.000000) scale(0.100000,-0.100000)"
fill="#000000" stroke="none">
<path d="M13348 26476 c-1 -2 -88 -6 -193 -10 -104 -3 -212 -8 -240 -11 -27
-2 -75 -7 -105 -10 -30 -3 -62 -7 -70 -9 -8 -3 -42 -8 -75 -11 -32 -4 -62 -8
-65 -10 -3 -2 -30 -6 -60 -10 -30 -4 -58 -9 -61 -11 -3 -2 -21 -6 -40 -9 -19
-3 -47 -8 -64 -12 -16 -4 -32 -7 -35 -8 -26 -5 -158 -38 -170 -42 -8 -4 -26
-8 -40 -10 -13 -2 -29 -8 -35 -12 -5 -5 -26 -12 -45 -17 -41 -9 -41 -9 -60
-16 -8 -3 -37 -14 -65 -23 -66 -23 -210 -79 -260 -101 -22 -10 -42 -18 -45
-19 -10 -1 -296 -145 -340 -171 -97 -56 -215 -128 -220 -133 -3 -3 -39 -28
-80 -56 -41 -27 -79 -53 -85 -57 -99 -76 -122 -94 -131 -103 -6 -5 -28 -23
-49 -40 -177 -141 -384 -350 -540 -545 -98 -122 -145 -186 -145 -198 0 -5 -4
-12 -8 -14 -16 -6 -166 -243 -212 -333 -8 -17 -17 -32 -20 -35 -14 -14 -60
-110 -53 -110 4 0 3 -4 -2 -8 -12 -8 -39 -64 -37 -74 1 -5 -3 -8 -8 -8 -6 0
-10 -5 -10 -11 0 -5 -12 -36 -26 -67 -26 -58 -81 -196 -90 -227 -1 -5 -12 -34
-22 -62 -11 -29 -18 -53 -15 -53 3 0 1 -6 -5 -12 -6 -7 -11 -16 -11 -20 -1 -5
-1 -9 -2 -10 0 -2 -2 -10 -4 -18 -2 -8 -18 -64 -34 -124 -17 -59 -30 -111 -29
-115 0 -3 -1 -9 -2 -13 -1 -5 -4 -12 -5 -18 -1 -5 -3 -11 -5 -12 -1 -2 -3 -12
-5 -23 -4 -30 -15 -88 -20 -105 -4 -17 -16 -84 -20 -120 -2 -14 -4 -25 -5 -25
-1 0 -3 -11 -4 -25 -2 -14 -6 -50 -11 -80 -34 -253 -40 -809 -10 -1020 2 -14
6 -52 10 -85 12 -100 13 -109 19 -135 3 -14 8 -43 11 -64 3 -21 7 -48 10 -60
3 -12 7 -32 9 -46 3 -14 8 -36 10 -50 3 -14 8 -34 10 -45 2 -11 9 -38 15 -60
5 -22 13 -55 16 -74 3 -19 9 -39 13 -45 3 -6 8 -20 9 -30 2 -11 11 -40 19 -65
9 -25 17 -50 18 -56 10 -41 20 -72 25 -80 3 -5 6 -14 7 -20 11 -66 197 -471
276 -600 10 -16 28 -49 40 -72 12 -24 26 -43 30 -43 4 0 8 -5 8 -10 0 -13 120
-194 132 -198 4 -2 8 -8 8 -13 0 -8 91 -131 110 -149 3 -3 18 -23 35 -45 16
-21 36 -47 45 -55 8 -9 43 -49 78 -88 53 -59 222 -229 265 -267 7 -6 46 -39
87 -75 41 -36 79 -68 85 -73 5 -4 47 -35 92 -70 45 -34 98 -73 118 -87 20 -14
42 -31 50 -37 7 -7 17 -13 20 -13 4 0 21 -10 38 -22 42 -31 69 -46 90 -54 9
-3 17 -10 17 -14 0 -6 43 -31 60 -35 3 0 21 -11 40 -23 19 -13 116 -63 215
-111 166 -82 203 -98 223 -102 4 0 16 -6 27 -12 11 -6 25 -12 30 -14 22 -5
110 -38 115 -43 3 -3 39 -16 80 -29 41 -13 82 -26 90 -29 8 -3 22 -7 30 -8 8
-2 56 -15 105 -29 50 -14 101 -28 115 -31 14 -2 32 -7 40 -10 8 -3 35 -9 60
-14 25 -5 59 -11 75 -14 60 -12 131 -25 175 -31 25 -4 56 -8 70 -10 14 -2 54
-7 90 -11 36 -3 79 -8 95 -10 17 -2 76 -5 133 -8 57 -3 108 -8 113 -11 5 -4 9
-2 9 3 0 6 14 7 33 3 47 -10 374 -1 517 14 25 2 72 7 105 10 33 4 71 8 85 10
14 2 43 6 65 10 23 3 52 8 65 10 14 3 41 7 60 10 19 3 46 7 60 11 14 3 39 7
55 10 17 3 44 9 60 14 17 5 41 11 55 14 87 17 385 108 470 143 8 3 17 7 20 8
3 1 19 7 35 14 17 7 35 14 40 16 12 2 71 28 135 58 25 12 47 21 50 22 3 0 16
7 30 15 14 8 27 15 30 15 3 1 23 10 45 22 22 11 42 20 45 19 3 0 19 9 37 22
17 12 34 22 37 22 10 0 251 147 336 205 143 98 307 227 424 335 60 55 243 242
284 290 17 19 49 58 73 85 37 43 162 209 205 270 79 115 182 291 258 440 27
55 51 102 51 105 1 3 13 31 28 63 15 32 27 59 27 61 0 2 8 21 17 42 9 22 17
41 18 44 1 3 5 12 8 20 71 163 179 544 212 745 2 11 6 38 10 60 3 22 8 50 10
63 2 13 7 53 11 90 3 37 8 75 10 85 25 135 25 713 -1 912 -17 138 -22 170 -34
245 -15 87 -28 155 -31 155 -1 0 -3 14 -5 30 -2 17 -7 41 -11 55 -4 14 -9 32
-10 40 -2 8 -5 22 -7 30 -2 8 -7 29 -12 45 -66 258 -199 589 -350 870 -63 118
-70 130 -75 135 -3 3 -27 40 -54 82 -26 43 -54 85 -62 93 -9 8 -13 15 -9 15 4
0 0 6 -7 14 -7 7 -20 23 -28 36 -50 72 -192 251 -250 312 -84 89 -162 168
-197 200 -23 20 -39 39 -35 42 3 3 1 6 -4 6 -6 0 -31 19 -56 43 -26 23 -65 58
-88 77 -24 19 -63 52 -88 73 -25 21 -57 46 -71 55 -14 9 -31 21 -37 27 -6 5
-22 17 -34 25 -12 8 -28 20 -34 25 -10 10 -112 78 -147 100 -145 87 -212 127
-243 141 -20 10 -36 21 -36 26 0 4 -4 8 -9 8 -5 0 -60 24 -122 54 -63 29 -136
64 -164 76 -52 24 -272 110 -290 114 -5 1 -16 5 -22 9 -7 5 -13 6 -13 3 0 -3
-17 1 -37 9 -21 8 -87 28 -148 45 -110 31 -121 34 -185 47 -19 4 -37 8 -40 8
-3 1 -16 5 -30 8 -14 4 -38 9 -55 11 -16 3 -41 7 -55 10 -57 11 -176 30 -195
31 -11 1 -49 5 -85 9 -99 12 -152 15 -305 22 -77 3 -145 7 -152 9 -6 2 -13 2
-15 1z m122 -1276 c0 -3 21 -6 48 -6 26 0 74 -4 107 -8 33 -4 83 -9 110 -12
28 -3 52 -9 55 -13 3 -3 16 -7 30 -7 28 -2 105 -12 105 -14 0 -1 7 -3 15 -5 9
-1 51 -13 95 -25 44 -12 85 -23 90 -24 6 -2 17 -6 25 -9 8 -3 44 -16 80 -28
121 -41 359 -154 439 -208 14 -10 46 -31 71 -47 179 -115 391 -300 520 -453
25 -30 50 -59 55 -65 54 -61 205 -282 228 -334 6 -15 17 -32 22 -38 11 -11 81
-152 125 -249 30 -66 100 -265 94 -265 -3 0 0 -8 5 -18 6 -11 12 -30 15 -43 3
-13 13 -51 21 -84 9 -33 17 -71 20 -85 2 -14 9 -52 16 -85 6 -33 13 -76 14
-95 2 -19 4 -35 5 -35 3 0 8 -48 16 -150 13 -174 7 -528 -11 -625 -3 -14 -7
-50 -10 -80 -3 -30 -8 -62 -10 -70 -2 -8 -7 -31 -10 -50 -3 -19 -11 -55 -16
-80 -6 -25 -12 -52 -14 -60 -25 -114 -99 -336 -148 -442 -19 -40 -37 -83 -41
-96 -4 -12 -12 -22 -17 -22 -5 0 -9 -3 -8 -7 2 -16 -14 -53 -22 -53 -5 0 -8
-3 -7 -7 5 -17 -164 -285 -213 -339 -11 -11 -19 -25 -19 -31 0 -6 -4 -13 -8
-15 -5 -1 -37 -37 -73 -78 -117 -138 -264 -275 -408 -381 -94 -69 -243 -165
-249 -161 -3 2 -8 0 -11 -5 -3 -4 -24 -17 -46 -29 -22 -11 -49 -26 -60 -32
-22 -13 -138 -64 -143 -62 -1 0 -17 -7 -35 -17 -17 -9 -36 -18 -42 -19 -5 -2
-44 -14 -85 -29 -41 -14 -83 -27 -93 -30 -10 -2 -27 -7 -37 -10 -10 -3 -28 -8
-39 -10 -12 -3 -31 -8 -43 -11 -36 -9 -159 -34 -198 -40 -19 -3 -46 -7 -60 -9
-14 -2 -52 -7 -85 -10 -33 -3 -76 -8 -95 -11 -43 -5 -403 -5 -445 0 -16 2 -59
7 -95 10 -132 14 -285 42 -408 77 -40 11 -81 22 -90 24 -50 11 -273 104 -384
159 -108 55 -343 201 -383 239 -30 29 -56 47 -66 47 -5 0 -8 4 -4 9 3 5 -3 12
-13 15 -37 12 -298 281 -376 389 -17 23 -34 44 -38 45 -5 2 -8 10 -8 18 0 8
-4 14 -10 14 -5 0 -10 5 -10 10 0 6 -9 20 -20 32 -11 12 -26 34 -32 50 -7 15
-16 28 -20 28 -5 0 -8 7 -8 15 0 8 -4 15 -8 15 -5 0 -17 18 -27 40 -10 22 -22
40 -27 40 -4 0 -8 8 -8 19 0 10 -9 30 -21 45 -11 15 -22 33 -23 40 -1 8 -6 20
-12 27 -6 8 -23 43 -38 79 -16 36 -34 79 -42 95 -26 57 -93 271 -114 360 -11
50 -24 101 -27 115 -7 28 -11 50 -17 100 -14 106 -18 129 -25 177 -4 28 -7 74
-7 102 1 28 -1 51 -4 51 -7 0 -4 321 4 420 8 92 10 115 21 205 7 58 9 68 20
118 9 39 18 92 19 110 0 9 3 17 6 17 4 0 7 6 7 13 2 40 53 208 101 332 176
448 479 851 846 1122 39 29 76 57 81 61 39 29 127 82 135 82 5 0 10 4 10 9 0
5 8 11 18 14 9 4 36 18 60 31 23 14 42 22 42 18 0 -4 4 -2 8 4 12 17 279 136
312 139 3 0 19 5 35 11 78 29 194 61 254 70 20 3 39 8 42 10 5 3 95 18 174 30
48 7 123 14 225 20 52 3 95 6 96 7 5 5 224 1 224 -3z"/>
<path d="M6474 26352 c-29 -4 -39 -16 -204 -247 -146 -205 -202 -281 -220
-302 -5 -7 -10 -15 -10 -18 0 -4 -6 -12 -12 -19 -7 -8 -31 -39 -53 -70 -22
-32 -89 -125 -150 -209 -109 -151 -141 -195 -160 -225 -5 -9 -20 -27 -32 -41
-13 -14 -23 -29 -23 -32 0 -3 -8 -15 -17 -27 -10 -11 -25 -30 -33 -43 -8 -12
-29 -40 -45 -63 -17 -23 -59 -81 -95 -131 -35 -49 -69 -93 -75 -97 -6 -5 -6
-8 0 -8 6 0 6 -3 -1 -8 -9 -6 -62 -76 -114 -152 -23 -33 -168 -234 -177 -245
-12 -15 -126 -174 -138 -193 -14 -23 -22 -33 -48 -67 -13 -16 -70 -95 -127
-175 -57 -80 -106 -147 -109 -150 -3 -3 -10 -12 -16 -21 -10 -16 -122 -174
-175 -246 -14 -18 -47 -66 -75 -106 -27 -39 -55 -76 -61 -82 -7 -5 -24 -30
-39 -55 -16 -24 -34 -51 -42 -58 -7 -7 -27 -35 -45 -60 -18 -26 -72 -102 -121
-170 l-89 -123 -109 148 c-60 81 -117 159 -127 172 -9 13 -22 29 -27 35 -6 6
-26 34 -45 61 -18 28 -43 62 -54 76 -12 14 -30 38 -41 53 -11 15 -31 43 -45
62 -14 18 -41 55 -60 81 -19 26 -37 50 -40 53 -3 3 -17 21 -30 40 -31 44 -286
389 -305 412 -7 9 -19 26 -25 38 -6 12 -18 29 -26 38 -26 30 -98 125 -164 217
-35 50 -105 144 -155 211 -49 66 -99 133 -110 148 -11 16 -32 44 -48 63 -15
20 -27 39 -27 42 0 3 -14 20 -30 38 -17 18 -30 36 -30 41 0 4 -8 17 -17 28
-31 34 -83 103 -83 108 0 6 -6 14 -57 74 -13 15 -23 30 -23 34 0 4 -6 13 -13
20 -7 7 -62 81 -122 163 -60 83 -113 152 -117 153 -5 2 -8 10 -8 17 0 7 -4 15
-9 17 -4 2 -54 66 -110 143 -118 163 -130 180 -153 206 -10 10 -18 21 -18 24
0 2 -29 43 -65 90 -36 46 -65 87 -65 90 0 3 -8 14 -18 26 -38 46 -48 58 -62
79 -8 12 -21 28 -28 36 -6 7 -12 17 -12 22 0 6 -4 12 -8 14 -4 2 -18 17 -30
35 l-23 32 -664 0 c-500 -1 -665 -3 -666 -12 0 -7 -1 -1721 -2 -3810 0 -3257
2 -3800 14 -3807 8 -5 18 -5 23 0 5 5 16 5 27 0 11 -7 20 -7 24 0 4 6 13 7 23
1 10 -5 24 -6 33 -1 8 5 21 5 28 1 7 -5 30 -5 52 -1 22 4 42 4 45 -1 2 -4 16
-4 29 1 15 6 27 6 30 0 4 -7 13 -7 24 0 10 5 21 7 23 4 8 -8 117 -9 124 -1 4
3 15 2 25 -4 13 -7 19 -6 19 1 0 7 6 8 18 1 10 -5 24 -6 32 -1 8 5 21 5 31 -1
11 -6 20 -5 24 1 3 5 15 6 28 1 13 -5 30 -5 39 0 11 6 19 5 23 -1 4 -7 12 -7
25 0 13 7 21 7 25 0 4 -7 12 -7 24 0 10 5 21 7 24 4 9 -10 42 -12 58 -3 8 4
21 4 29 -1 8 -5 21 -5 31 1 11 6 20 5 24 -1 4 -7 13 -7 26 0 12 7 25 7 37 1
11 -6 24 -6 34 0 11 6 19 6 23 -1 4 -7 12 -7 25 0 11 6 21 6 25 1 3 -6 17 -6
35 -1 18 5 32 5 35 -1 4 -5 14 -5 25 1 13 7 21 7 25 0 4 -6 13 -7 23 -1 10 5
24 6 32 1 23 -13 71 0 69 19 -1 9 -1 1197 0 2640 l1 2624 80 -109 c44 -60 86
-118 94 -129 8 -11 43 -58 78 -105 35 -47 71 -98 81 -113 10 -16 24 -36 32
-45 8 -9 57 -75 109 -147 52 -71 127 -173 165 -225 39 -52 135 -185 215 -295
79 -110 153 -209 163 -220 10 -11 24 -32 32 -48 8 -15 18 -27 23 -27 4 0 8 -7
8 -15 0 -8 3 -15 8 -15 4 0 18 -17 32 -38 14 -20 28 -41 33 -47 4 -5 21 -28
37 -50 16 -22 33 -44 38 -50 4 -5 23 -32 42 -60 19 -27 37 -52 41 -55 3 -3 49
-66 102 -140 54 -74 111 -153 128 -175 16 -22 54 -74 84 -115 30 -41 59 -80
65 -87 5 -7 20 -27 33 -45 30 -44 79 -110 95 -126 6 -7 12 -17 12 -22 0 -4 16
-25 35 -46 19 -22 35 -43 35 -48 0 -4 10 -20 22 -35 13 -15 31 -38 41 -52 9
-13 78 -107 152 -209 74 -102 140 -192 148 -200 8 -8 20 -25 26 -38 7 -13 20
-32 29 -42 9 -10 25 -28 34 -41 16 -21 25 -23 100 -21 55 0 84 5 89 14 6 10
70 96 107 143 4 6 21 28 37 50 17 22 33 44 38 50 4 5 48 64 97 130 49 66 93
125 98 130 4 6 28 37 52 70 24 33 48 65 52 70 31 38 45 56 58 75 32 47 85 115
93 118 4 2 7 8 7 13 0 6 9 20 21 32 11 12 35 42 52 67 17 25 33 47 37 50 3 3
30 39 60 80 30 41 57 77 60 80 3 3 54 70 113 150 59 80 112 151 118 158 6 7
55 72 109 145 55 73 103 137 107 142 4 6 55 73 113 150 57 77 107 142 110 145
4 3 21 26 38 52 18 25 38 52 45 60 7 7 28 35 47 62 18 27 40 57 49 67 9 9 27
33 41 53 14 20 34 47 45 60 11 13 27 33 35 46 8 12 20 28 25 34 6 6 43 56 84
111 41 55 78 102 83 103 4 2 8 8 8 14 0 9 27 45 75 101 8 9 15 21 15 27 0 5 6
13 13 17 6 4 27 31 46 58 19 28 42 57 50 66 9 10 36 44 60 78 24 34 44 61 45
61 0 0 1 -1164 1 -2586 l-1 -2586 21 -8 c11 -4 27 -4 36 0 8 5 21 5 29 0 8 -5
21 -5 31 1 11 6 20 5 24 -1 4 -7 13 -7 26 0 12 7 25 7 37 1 11 -6 24 -6 34 0
11 6 19 6 23 -1 4 -7 12 -7 25 0 11 6 21 6 25 1 3 -6 17 -6 35 -1 18 5 32 5
35 -1 4 -5 14 -5 25 1 13 7 21 7 25 0 4 -6 13 -7 23 -1 11 6 24 6 34 0 10 -6
26 -5 42 1 15 5 26 6 26 0 0 -5 12 -5 30 0 18 5 30 5 30 0 0 -6 10 -6 25 0 15
6 26 6 30 0 4 -6 13 -7 24 -1 10 6 23 6 31 1 8 -5 21 -5 31 1 11 6 20 5 24 -1
4 -7 13 -7 26 0 12 7 25 7 37 1 11 -6 24 -6 34 0 11 6 19 6 23 -1 4 -7 12 -7
25 0 11 6 21 6 25 1 3 -6 17 -6 35 -1 18 5 32 5 35 -1 4 -5 14 -5 25 1 13 7
21 7 25 0 4 -6 13 -7 23 -1 11 6 24 6 34 0 10 -6 26 -5 42 1 15 5 26 6 26 0 0
-5 12 -5 30 0 19 5 30 5 30 -1 0 -6 4 -7 10 -4 14 9 80 12 85 5 3 -4 15 -5 28
-3 l24 5 0 3813 0 3813 -634 1 c-348 0 -636 1 -640 3 -5 2 -18 2 -29 0z"/>
<path d="M18869 26337 c0 -7 -1 -1721 -1 -3811 -1 -4017 -3 -3830 42 -3806 9
5 22 5 30 0 8 -5 21 -5 31 1 11 6 20 5 24 -1 4 -7 13 -7 26 0 12 7 25 7 37 1
11 -6 24 -6 34 0 11 6 19 6 23 -1 4 -7 12 -7 25 0 11 6 21 6 25 1 3 -6 17 -6
35 -1 18 5 32 5 35 -1 4 -5 14 -5 25 1 13 7 21 7 25 0 4 -6 13 -7 23 -1 11 6
24 6 34 0 10 -6 26 -5 42 1 15 5 26 6 26 0 0 -5 12 -5 30 0 18 5 30 5 30 0 0
-6 11 -5 26 0 16 6 32 6 43 1 10 -6 23 -6 31 -1 8 5 21 5 31 -1 11 -6 20 -5
24 1 3 5 15 6 28 1 13 -5 30 -5 39 0 11 6 19 5 23 -1 4 -7 12 -7 25 0 13 7 21
7 25 0 4 -6 13 -7 24 -1 9 5 23 6 31 1 7 -4 24 -4 36 0 14 6 26 5 29 0 3 -6
15 -6 30 0 15 6 27 6 30 0 4 -6 13 -7 23 -1 11 6 24 6 34 0 10 -6 19 -6 23 0
3 7 15 7 30 1 15 -6 27 -6 30 1 4 5 13 6 22 1 8 -5 33 -6 54 -2 22 4 41 4 44
0 2 -4 16 -5 30 -2 l25 4 1 177 c1 97 0 181 -1 186 -2 9 -2 23 1 68 1 6 1 68
0 137 0 69 -1 163 -1 210 -1 47 -1 91 -1 98 0 19 0 460 0 480 0 9 0 71 0 137
-1 66 -1 125 0 130 0 10 1 176 0 208 -1 61 0 476 1 492 2 32 2 33 1 165 0 69
0 156 0 193 1 38 -1 71 -4 73 -3 3 -2 17 2 32 l7 27 650 1 c577 0 650 -2 661
-15 7 -9 22 -36 34 -61 13 -25 28 -52 35 -60 7 -8 27 -44 46 -80 19 -36 49
-89 67 -118 17 -29 31 -56 31 -60 0 -5 6 -14 13 -21 6 -6 12 -15 12 -19 0 -4
19 -38 41 -77 23 -38 54 -95 70 -125 16 -30 31 -57 34 -60 3 -3 10 -14 16 -25
79 -147 105 -192 146 -264 26 -46 48 -88 48 -92 0 -5 5 -9 10 -9 6 0 10 -5 10
-11 0 -6 23 -52 52 -103 28 -50 62 -111 76 -136 14 -25 33 -58 42 -75 9 -16
32 -57 50 -90 18 -33 40 -68 48 -77 8 -10 11 -18 7 -18 -4 0 -2 -8 6 -17 8
-10 25 -38 39 -63 13 -25 28 -54 34 -65 6 -11 14 -22 17 -25 4 -3 14 -21 23
-40 8 -19 27 -55 42 -80 68 -118 114 -200 114 -205 0 -3 15 -29 33 -58 18 -29
39 -65 47 -82 8 -16 22 -41 31 -55 9 -14 35 -61 59 -105 24 -44 56 -102 72
-128 15 -26 28 -52 28 -56 0 -5 7 -14 15 -21 8 -6 14 -15 13 -18 -1 -4 9 -25
22 -47 14 -22 38 -66 55 -97 16 -31 33 -54 37 -52 4 3 16 0 27 -6 13 -7 28 -7
45 0 15 5 26 6 26 0 0 -5 12 -5 30 0 18 5 30 5 30 0 0 -6 11 -5 26 0 16 6 32
6 43 1 10 -6 23 -6 31 -1 8 5 21 5 31 -1 11 -6 20 -5 24 1 3 5 15 6 28 1 13
-5 30 -5 39 0 11 6 19 5 23 -1 4 -7 12 -7 25 0 13 7 21 7 25 0 4 -6 13 -7 24
-1 9 5 23 6 31 1 7 -4 24 -4 36 0 14 6 26 5 29 0 3 -6 15 -6 30 0 15 6 27 6
30 0 4 -6 13 -7 24 -1 10 6 23 6 31 1 8 -5 19 -5 25 0 6 5 17 5 25 0 8 -5 21
-5 30 0 9 5 22 5 29 1 7 -5 30 -5 52 -1 22 4 42 4 45 -1 2 -4 16 -4 29 1 15 6
27 6 30 0 4 -7 13 -7 24 0 10 5 21 7 23 4 5 -4 64 -6 128 -4 8 1 30 -1 48 -3
17 -2 32 0 32 4 0 4 14 4 30 -1 18 -5 30 -5 30 0 0 6 10 6 25 0 14 -5 25 -6
25 -1 0 9 42 7 57 -2 5 -3 15 -2 23 3 8 5 21 5 31 -1 10 -5 20 -5 23 -1 3 5
20 7 38 5 43 -5 69 -5 74 0 3 2 -30 65 -72 138 -43 74 -87 152 -98 174 -12 22
-24 42 -28 45 -4 3 -12 17 -17 30 -6 14 -23 43 -36 65 -14 22 -28 47 -32 55
-8 16 -87 156 -103 180 -6 8 -14 24 -20 35 -5 11 -23 43 -40 70 -17 28 -38 66
-48 85 -9 19 -20 37 -23 40 -3 3 -23 37 -44 75 -21 39 -42 72 -47 73 -4 2 -8
12 -8 22 0 9 -7 23 -15 30 -8 7 -15 16 -15 20 0 5 -27 54 -60 109 -33 56 -60
103 -60 105 0 3 -26 49 -58 103 -32 54 -61 105 -65 113 -4 8 -18 33 -32 55
-14 22 -28 47 -32 55 -8 18 -129 228 -143 250 -6 8 -13 22 -17 30 -4 8 -19 35
-33 61 -26 43 -67 114 -97 169 -8 14 -28 48 -44 75 -17 28 -33 58 -36 68 -3 9
-10 17 -16 17 -6 0 -7 3 -4 7 4 3 1 13 -7 22 -7 9 -27 41 -43 71 -17 30 -91
161 -165 290 -74 129 -147 256 -161 282 l-26 46 27 7 c15 4 63 25 107 47 107
54 120 62 139 77 9 7 16 10 16 7 0 -4 15 4 33 18 19 15 37 26 41 26 4 0 18 8
31 18 12 9 33 24 45 32 151 102 412 355 500 485 8 12 39 57 68 100 29 43 60
92 69 109 9 17 19 33 22 36 17 12 156 320 145 320 -2 0 0 8 5 19 6 10 22 58
36 107 26 88 31 106 40 154 3 14 7 36 10 50 12 63 15 78 21 120 33 227 37 532
9 785 -13 114 -20 161 -37 235 -5 25 -11 52 -13 60 -12 57 -41 159 -67 235
-36 105 -170 387 -198 415 -3 3 -30 42 -60 87 -30 46 -58 83 -62 83 -5 0 -8 4
-8 9 0 24 -213 241 -330 336 -77 62 -204 149 -292 199 -106 61 -376 184 -438
201 -3 1 -12 4 -20 7 -71 27 -277 87 -325 94 -11 2 -64 12 -118 23 -54 11
-116 21 -138 23 -21 1 -39 4 -39 7 0 4 -17 6 -38 7 -20 1 -62 5 -92 9 -30 4
-760 9 -1622 11 -1226 3 -1568 1 -1569 -9z m1657 -1216 c43 0 86 0 94 0 8 0
80 0 160 0 80 0 154 0 165 0 33 0 229 0 240 0 6 0 19 0 30 -1 21 -1 139 -2
258 -1 38 0 72 3 77 6 5 3 11 1 15 -5 4 -6 10 -8 15 -5 16 10 325 2 380 -10
14 -3 41 -7 61 -10 20 -2 48 -9 62 -14 14 -5 27 -7 30 -5 3 3 15 0 27 -6 12
-6 33 -14 48 -16 52 -10 259 -106 298 -139 38 -32 52 -43 62 -46 7 -2 48 -40
93 -84 73 -72 188 -227 193 -260 1 -7 6 -19 12 -26 12 -16 57 -136 73 -194 52
-189 57 -504 11 -677 -7 -23 -13 -50 -15 -58 -2 -8 -11 -37 -20 -64 -85 -249
-276 -471 -510 -594 -53 -28 -158 -72 -182 -78 -6 -1 -27 -7 -45 -13 -18 -6
-44 -12 -58 -15 -14 -3 -34 -7 -45 -9 -11 -3 -40 -8 -65 -12 -25 -3 -58 -9
-75 -12 -16 -3 -396 -6 -843 -7 l-813 -1 0 85 c1 98 1 87 0 245 -1 66 -1 125
0 130 0 10 1 176 0 208 0 23 0 463 0 485 0 9 0 71 0 137 -1 66 -1 125 0 130 0
10 1 176 0 208 0 29 0 466 0 485 0 9 1 68 1 130 l0 113 80 -2 c45 -1 83 1 87
4 3 4 9 5 13 2 4 -2 42 -4 86 -4z"/>
<path d="M25958 26332 c-3 -14 -2 -7577 1 -7606 1 -5 4 -6 7 -3 4 3 15 2 25
-3 12 -7 20 -7 24 0 4 6 11 7 17 4 16 -10 50 -11 76 -2 12 4 22 3 22 -2 0 -5
12 -5 30 0 18 5 30 5 30 0 0 -6 10 -6 25 0 15 6 26 6 30 0 4 -6 13 -7 24 -1
10 6 23 6 31 1 8 -5 21 -5 31 1 11 6 20 5 24 -1 4 -7 13 -7 26 0 12 7 25 7 37
1 11 -6 24 -6 34 0 11 6 19 6 23 -1 4 -7 12 -7 25 0 11 6 21 6 25 1 3 -6 17
-6 35 -1 18 5 32 5 35 -1 4 -5 14 -5 25 1 13 7 21 7 25 0 4 -6 13 -7 23 -1 11
6 24 6 34 0 10 -6 26 -5 42 1 15 5 26 6 26 0 0 -5 12 -5 30 0 19 5 30 5 30 -1
0 -6 4 -7 10 -4 15 9 81 12 86 4 3 -5 16 -4 29 1 15 6 27 6 30 0 4 -6 13 -7
24 -1 10 6 23 6 31 1 8 -5 19 -5 25 0 6 5 17 5 25 0 8 -5 21 -5 30 0 9 5 22 5
29 1 7 -5 30 -5 52 -1 22 4 42 4 45 -1 2 -4 16 -4 29 1 15 6 27 6 30 0 4 -7
13 -7 24 0 10 5 21 7 23 4 8 -8 117 -9 124 -1 4 3 15 2 25 -4 13 -7 19 -6 19
1 0 7 6 8 18 1 10 -5 24 -6 32 -1 8 5 21 5 31 -1 11 -6 20 -5 24 1 3 5 15 6
28 1 13 -5 30 -5 39 0 11 6 19 5 23 -1 4 -7 12 -7 25 0 13 7 21 7 25 0 4 -7
12 -7 24 0 10 5 21 7 24 4 9 -10 42 -12 58 -3 8 4 21 4 29 -1 8 -5 21 -5 31 1
11 6 20 5 24 -1 4 -7 13 -7 26 0 12 7 25 7 37 1 11 -6 24 -6 34 0 11 6 19 6
23 -1 4 -7 12 -7 25 0 11 6 21 6 25 1 3 -6 17 -6 35 -1 18 5 32 5 35 -1 4 -5
14 -5 25 1 13 7 21 7 25 0 4 -6 13 -7 23 -1 11 6 24 6 34 0 10 -6 26 -5 42 1
15 5 26 6 26 0 0 -5 12 -5 30 0 18 5 30 5 30 0 0 -6 11 -5 26 0 16 6 32 6 43
1 10 -6 23 -6 31 -1 8 5 21 5 31 -1 11 -6 20 -5 24 1 3 5 15 6 28 1 13 -5 30
-5 39 0 11 6 19 5 23 -1 4 -7 12 -7 25 0 13 7 21 7 25 0 4 -6 13 -7 24 -1 9 5
23 6 31 1 7 -4 24 -4 36 0 14 6 26 5 29 0 3 -6 15 -6 30 0 15 6 27 6 30 0 4
-6 13 -7 24 -1 10 6 23 6 31 1 8 -5 19 -5 25 0 6 5 17 5 25 0 8 -5 21 -5 30 0
9 5 22 5 29 1 7 -5 30 -5 52 -1 22 4 42 4 45 -1 2 -4 16 -4 29 1 15 6 27 6 30
0 4 -7 13 -7 24 0 10 5 21 7 23 4 5 -4 72 -6 128 -4 8 1 24 -1 35 -3 11 -2 27
-1 36 4 8 4 21 4 29 -1 8 -5 21 -5 31 1 11 6 20 5 24 -1 4 -7 13 -7 26 0 12 7
25 7 37 1 11 -6 24 -6 34 0 11 6 19 6 23 -1 4 -7 12 -7 25 0 11 6 21 6 25 1 3
-6 17 -6 35 -1 18 5 32 5 35 -1 4 -5 14 -5 25 1 13 7 21 7 25 0 4 -6 13 -7 23
-1 11 6 24 6 34 0 10 -6 26 -5 42 1 15 5 26 6 26 0 0 -5 12 -5 30 0 18 5 30 5
30 0 0 -6 10 -6 25 0 15 6 26 6 30 0 4 -6 13 -7 24 -1 10 6 23 6 31 1 8 -5 21
-5 31 1 11 6 20 5 24 -1 4 -7 13 -7 26 0 12 7 25 7 37 1 11 -6 24 -6 34 0 11
6 19 6 23 -1 4 -7 12 -7 25 0 11 6 21 6 25 1 3 -6 17 -6 35 -1 18 5 32 5 35
-1 4 -5 14 -5 25 1 13 7 21 7 25 0 4 -6 13 -7 23 -1 11 6 24 6 34 0 10 -6 26
-5 42 1 15 5 26 6 26 0 0 -5 12 -5 30 0 18 5 30 5 30 0 0 -6 11 -5 26 0 16 6
32 6 43 1 10 -6 23 -6 31 -1 8 5 21 5 31 -1 11 -6 20 -5 24 1 3 5 15 6 28 1
13 -5 30 -5 39 0 11 6 19 5 23 -1 4 -7 12 -7 25 0 10 6 21 6 24 2 3 -5 18 -7
34 -4 l28 4 0 611 -1 612 -1825 2 c-1004 1 -1831 2 -1837 3 -10 0 -13 205 -13
993 l0 992 1735 0 1735 0 0 30 c3 228 0 1186 -3 1192 -3 4 -784 8 -1736 8
l-1731 -1 0 978 0 978 38 1 c20 1 42 0 47 -1 30 -6 115 -4 115 3 0 5 4 5 10 2
5 -3 56 -6 112 -5 57 0 137 0 178 0 41 0 158 0 260 0 102 1 190 1 195 1 63 0
305 0 320 0 65 0 232 0 245 0 113 -3 352 -1 359 3 5 4 12 2 16 -4 4 -6 10 -8
14 -6 9 6 79 8 154 4 31 -2 57 1 57 5 0 5 4 5 10 2 5 -3 56 -6 112 -5 57 0
137 0 178 0 41 0 158 0 260 0 102 1 190 1 195 1 63 0 305 0 320 0 118 1 234 1
250 0 84 -5 125 -5 125 0 0 3 23 3 50 -1 33 -4 51 -3 51 4 1 6 3 284 3 618 l2
607 -2532 0 c-2362 0 -2532 -2 -2536 -17z"/>
<path d="M32369 26345 c-2 -2 -4 -1716 -3 -3810 0 -2798 4 -3809 12 -3814 12
-7 87 -5 100 3 4 2 14 1 22 -4 8 -5 21 -5 31 1 11 6 20 5 24 -1 4 -7 12 -7 25
0 11 6 21 6 25 1 3 -6 17 -6 35 -1 18 5 32 5 35 -1 4 -5 14 -5 25 1 13 7 21 7
25 0 4 -6 13 -7 23 -1 11 6 24 6 34 0 10 -6 26 -5 42 1 15 5 26 6 26 0 0 -5
12 -5 30 0 18 5 30 5 30 0 0 -6 11 -5 26 0 16 6 32 6 43 1 10 -6 23 -6 31 -1
8 5 21 5 31 -1 11 -6 20 -5 24 1 3 5 15 6 28 1 13 -5 30 -5 39 0 11 6 19 5 23
-1 4 -7 12 -7 25 0 13 7 21 7 25 0 4 -7 12 -7 23 -1 10 6 23 6 34 0 12 -7 18
-6 18 1 0 7 6 8 18 1 10 -5 24 -6 32 -1 8 5 21 5 31 -1 11 -6 20 -5 24 1 3 5
15 6 28 1 13 -5 30 -5 39 0 11 6 19 5 23 -1 4 -7 12 -7 25 0 13 7 21 7 25 0 4
-7 12 -7 24 0 10 5 21 7 24 4 9 -9 67 -11 67 -3 0 4 14 4 30 -1 18 -5 30 -5
30 0 0 6 10 6 25 0 21 -8 26 -6 30 13 6 21 7 42 4 77 0 8 -1 58 0 110 0 52 0
102 0 110 0 8 0 40 0 70 0 30 0 62 0 70 0 8 0 29 0 45 1 17 1 39 1 50 0 11 0
57 0 103 1 45 -2 87 -5 92 -3 6 -3 10 2 10 6 0 9 112 2 130 -1 3 -1 8 0 12 0
6 1 88 1 133 -1 11 -1 70 -1 130 0 61 0 115 0 120 0 6 0 35 0 65 0 30 0 62 0
70 0 8 0 38 0 65 0 28 0 57 0 65 0 8 1 40 1 70 1 30 1 60 0 65 -2 6 -2 13 -1
17 0 4 1 40 1 80 -1 101 -1 97 0 158 1 30 1 60 0 65 -2 6 -2 13 -1 17 1 6 1
171 0 218 0 8 0 40 0 70 0 30 0 62 0 70 0 8 0 29 0 45 1 17 1 39 1 50 0 11 0
57 0 103 1 45 -2 87 -5 92 -3 6 -3 10 2 10 6 0 9 112 2 130 -1 3 -1 8 0 12 0
6 1 88 1 133 -1 11 -1 70 -1 130 0 61 0 115 0 120 0 6 0 35 0 65 1 30 0 81 -1
113 -2 31 -1 57 2 57 3 0 4 44 2 97 -3 124 -2 205 4 214 2 4 0 10 -6 14 -6 4
-8 10 -5 14 4 7 6 63 5 131 -1 8 -1 44 -1 80 1 36 1 74 1 85 0 11 0 57 0 103
1 45 -2 87 -5 92 -3 6 -3 10 2 10 6 0 9 112 2 130 -1 3 -1 8 0 12 0 3 0 33 1
65 0 32 0 67 0 78 0 11 1 91 3 178 1 86 0 157 -3 157 -3 0 -4 20 -2 45 l4 45
22 -27 c11 -15 71 -97 133 -183 61 -85 116 -159 120 -165 4 -5 33 -44 63 -85
30 -41 58 -76 62 -78 5 -2 8 -8 8 -13 0 -5 15 -28 33 -52 17 -24 40 -54 50
-68 89 -124 208 -287 219 -300 7 -9 18 -23 23 -32 16 -25 158 -222 164 -227 4
-3 17 -22 31 -42 14 -21 28 -38 33 -38 4 0 7 -5 7 -11 0 -5 27 -46 60 -89 33
-43 60 -83 60 -89 0 -5 4 -11 8 -13 5 -1 48 -57 95 -123 47 -66 98 -133 111
-150 14 -16 26 -36 26 -42 0 -7 4 -13 9 -13 5 0 20 -17 32 -37 13 -21 25 -40
29 -43 8 -8 51 -67 105 -145 27 -38 51 -72 55 -75 3 -3 35 -45 70 -95 35 -49
69 -93 75 -97 5 -4 6 -8 2 -8 -4 0 2 -10 13 -22 12 -13 29 -35 38 -50 9 -16
20 -28 24 -28 4 0 8 -6 8 -14 0 -8 4 -16 8 -18 7 -3 101 -130 186 -252 16 -22
31 -43 35 -46 3 -3 22 -27 41 -55 19 -27 38 -51 42 -53 4 -2 8 -10 8 -17 0 -7
3 -15 8 -17 4 -1 29 -34 56 -73 27 -38 59 -82 70 -96 12 -14 28 -36 36 -48 16
-25 85 -120 98 -136 4 -5 19 -26 32 -45 14 -19 30 -40 35 -46 6 -6 17 -22 25
-34 8 -13 25 -35 38 -50 12 -15 22 -32 22 -38 0 -6 3 -12 8 -14 4 -1 32 -37
62 -78 30 -41 58 -76 62 -78 5 -2 8 -10 8 -18 0 -8 4 -14 8 -14 5 0 14 -10 21
-22 6 -13 24 -39 39 -59 15 -20 61 -83 102 -140 41 -57 78 -106 82 -107 5 -2
6 -8 2 -13 -3 -5 -1 -9 3 -9 5 0 26 -25 48 -56 112 -156 159 -219 167 -222 4
-2 8 -10 8 -18 0 -8 7 -17 15 -20 8 -4 15 -10 15 -15 0 -5 27 -46 61 -91 33
-46 67 -92 75 -103 7 -11 50 -69 94 -128 44 -60 80 -113 80 -118 0 -5 3 -9 8
-9 4 0 18 -18 32 -40 14 -22 28 -40 32 -40 5 0 8 -5 8 -11 0 -6 6 -16 13 -23
6 -7 20 -24 31 -38 16 -21 24 -24 50 -18 18 4 42 3 54 -1 12 -5 24 -4 27 1 3
6 15 6 30 0 16 -6 25 -6 25 0 0 6 9 6 23 1 12 -5 32 -5 44 0 13 5 25 4 28 -1
4 -6 13 -7 24 -1 9 5 23 6 30 2 7 -5 30 -5 52 -1 22 4 42 4 45 -1 2 -4 16 -4
29 1 15 6 27 6 30 0 4 -6 13 -7 24 -1 10 6 23 6 31 1 8 -5 19 -5 25 0 6 5 17
5 25 0 8 -5 21 -5 30 0 9 5 22 5 29 1 7 -5 30 -5 52 -1 22 4 42 4 45 -1 2 -4
16 -4 29 1 15 6 27 6 30 0 4 -7 13 -7 24 0 10 5 21 7 23 4 3 -3 30 -5 59 -5
88 1 92 1 136 0 50 -1 64 6 56 29 -4 9 -6 32 -5 52 1 19 2 82 2 140 -1 58 -1
112 -1 120 1 8 1 62 0 120 0 58 0 112 0 120 0 8 1 98 0 200 0 102 0 190 0 195
0 6 1 44 2 85 0 41 0 98 0 125 -1 28 0 105 1 173 2 67 0 122 -4 122 -4 0 -4
10 0 23 4 12 6 42 6 67 -3 105 -4 149 -3 220 0 41 0 95 0 120 -1 25 -1 77 0
115 0 39 0 93 0 120 -1 28 0 105 1 173 2 67 0 122 -4 122 -4 0 -4 10 0 23 4
12 6 42 6 67 -3 105 -4 149 -3 220 0 41 0 95 0 120 -1 25 -1 77 0 115 0 39 0
93 0 120 -1 42 -2 192 -1 245 0 8 -1 51 -1 95 0 44 0 85 0 90 2 74 3 170 2
210 -1 28 0 105 1 173 2 67 0 122 -4 122 -4 0 -4 10 0 23 4 12 6 42 6 67 -3
105 -4 149 -3 220 0 41 0 95 0 120 -1 25 -1 77 0 115 0 39 0 93 0 120 -1 28 0
105 1 173 2 67 0 122 -4 122 -4 0 -4 10 0 23 4 12 6 42 6 67 -3 102 -6 331 -5
370 1 8 1 62 0 120 0 58 0 112 0 120 0 8 1 98 0 200 0 102 0 190 0 195 0 6 1
44 2 85 0 41 0 98 0 125 -1 28 0 105 1 173 2 67 0 122 -4 122 -4 0 -4 10 0 23
4 12 6 42 6 67 -3 105 -4 149 -3 220 0 41 0 95 0 120 -1 25 -1 77 0 115 0 39
0 93 0 120 -1 28 -1 84 0 125 0 41 0 95 -1 120 -2 25 -1 50 0 55 1 6 2 22 1
37 l-1 27 -695 0 -695 0 -1 -52 c0 -29 -1 -1126 -1 -2440 0 -1355 -4 -2390 -9
-2393 -5 -3 -9 0 -9 6 0 11 -140 203 -152 208 -5 2 -8 10 -8 17 0 7 -4 15 -8
17 -5 2 -63 77 -130 168 -67 91 -125 170 -130 175 -4 6 -31 42 -59 80 -29 39
-58 77 -65 85 -8 9 -29 39 -48 68 -18 29 -37 52 -41 52 -4 0 -10 8 -13 18 -3
9 -17 30 -31 46 -14 16 -58 74 -98 128 -39 54 -143 193 -229 309 -87 116 -158
214 -158 219 0 5 -4 10 -8 12 -13 5 -102 126 -102 137 0 6 -4 11 -9 11 -4 0
-21 19 -37 43 -16 23 -33 47 -37 52 -14 17 -241 322 -257 346 -8 12 -20 27
-25 33 -6 6 -26 33 -45 60 -18 27 -40 56 -49 65 -9 9 -36 46 -60 81 -25 36
-48 67 -51 70 -3 3 -57 75 -120 160 -62 85 -117 157 -122 158 -4 2 -8 8 -8 13
0 6 -25 41 -55 79 -30 38 -55 72 -55 75 0 4 -6 13 -12 20 -7 8 -18 20 -23 27
-61 77 -75 97 -75 101 0 3 -13 21 -30 39 -16 18 -30 36 -30 40 0 5 -8 16 -17
26 -10 11 -26 30 -35 43 -22 32 -176 240 -191 259 -7 8 -23 31 -37 50 -13 19
-29 40 -35 47 -31 37 -35 43 -35 52 0 5 -3 11 -8 13 -4 2 -62 77 -130 168 -67
91 -129 173 -137 183 -8 9 -15 21 -15 26 0 5 -3 11 -7 13 -7 2 -141 179 -211
277 -9 13 -23 30 -29 37 -7 7 -13 17 -13 23 0 6 -3 11 -7 11 -5 1 -24 24 -43
52 -19 28 -47 65 -62 83 -16 18 -28 37 -28 43 0 6 -4 12 -8 14 -5 2 -31 35
-60 73 -28 39 -55 75 -60 80 -4 6 -19 26 -32 45 -14 19 -29 38 -34 42 -10 7
-1081 10 -1087 3z"/>
<path d="M39656 26342 c-2 -4 -4 -280 -4 -614 l0 -608 67 -1 c36 -1 70 0 76 1
5 1 17 2 25 1 17 0 295 0 325 0 65 0 232 0 245 0 113 -3 352 -1 359 3 5 4 12
2 16 -4 4 -6 10 -8 14 -6 9 6 79 8 154 4 31 -2 57 1 57 5 0 5 4 5 10 2 5 -3
56 -6 112 -5 137 0 227 0 385 -1 l132 0 0 -3177 c0 -3701 -1 -3225 11 -3217 6
3 10 2 10 -4 0 -7 8 -7 25 -1 15 6 26 6 30 0 4 -6 13 -7 24 -1 10 6 23 6 31 1
8 -5 19 -5 25 0 6 5 17 5 25 0 8 -5 21 -5 30 0 9 5 22 5 29 1 7 -5 30 -5 52
-1 22 4 42 4 45 -1 2 -4 16 -4 29 1 15 6 27 6 30 0 4 -7 13 -7 24 0 10 5 21 7
23 4 5 -4 72 -6 128 -4 8 1 24 -1 35 -3 11 -2 27 -1 36 4 8 4 21 4 29 -1 8 -5
21 -5 31 1 11 6 20 5 24 -1 4 -7 13 -7 26 0 12 7 25 7 37 1 11 -6 24 -6 34 0
11 6 19 6 23 -1 4 -7 12 -7 25 0 11 6 21 6 25 1 3 -6 17 -6 35 -1 18 5 32 5
35 -1 4 -5 14 -5 25 1 13 7 21 7 25 0 4 -6 13 -7 23 -1 11 6 24 6 34 0 10 -6
26 -5 42 1 15 5 26 6 26 0 0 -5 12 -5 30 0 18 5 30 5 30 0 0 -6 10 -6 25 0 15
6 26 6 30 0 4 -7 13 -6 25 0 12 6 21 7 25 0 4 -6 15 -6 30 0 14 5 25 6 25 1 0
-5 9 -7 20 -4 17 4 20 14 20 57 1 28 1 1468 1 3199 l1 3148 51 -1 c29 -1 57
-1 62 0 6 1 39 1 75 1 36 -1 148 -1 250 -1 102 1 190 1 195 1 63 0 305 0 320
0 65 0 232 0 245 0 113 -3 352 -1 359 3 5 4 12 3 15 -2 3 -5 28 -6 55 -2 28 3
55 4 61 0 6 -4 32 -4 59 0 27 3 56 4 65 0 9 -3 42 -3 73 0 l58 5 1 77 c1 42 4
84 7 93 4 8 3 15 -1 15 -8 0 -7 283 2 305 3 8 2 15 -2 15 -4 0 -7 162 -6 359
l1 360 -2658 0 c-1462 0 -2660 -3 -2663 -7z"/>
</g>
</svg>
