<svg width="25" height="16" viewBox="0 0 25 16" fill="none" xmlns="http://www.w3.org/2000/svg">
<g id="Group">
<path id="Vector" d="M22.1048 0H2.164C1.0627 0 0.169922 0.89543 0.169922 2V14C0.169922 15.1046 1.0627 16 2.164 16H22.1048C23.2061 16 24.0988 15.1046 24.0988 14V2C24.0988 0.89543 23.2061 0 22.1048 0Z" fill="#016FD0"/>
<path id="Vector_2" fill-rule="evenodd" clip-rule="evenodd" d="M13.8936 13.3938V7.69244L24.011 7.70155V9.27644L22.8416 10.5298L24.011 11.7947V13.403H22.144L21.1517 12.3049L20.1665 13.4072L13.8936 13.3938Z" fill="#FFFFFE"/>
<path id="Vector_3" fill-rule="evenodd" clip-rule="evenodd" d="M14.5693 12.7688V8.31989H18.3304V9.34477H15.7871V10.0405H18.2698V11.0483H15.7871V11.7316H18.3304V12.7688H14.5693Z" fill="#016FD0"/>
<path id="Vector_4" fill-rule="evenodd" clip-rule="evenodd" d="M18.3116 12.7688L20.3928 10.5418L18.3115 8.32001H19.9224L21.1941 9.73004L22.4694 8.32001H24.011V8.35501L21.9742 10.5418L24.011 12.7057V12.7688H22.4539L21.1596 11.3446L19.8787 12.7688H18.3116Z" fill="#016FD0"/>
<path id="Vector_5" fill-rule="evenodd" clip-rule="evenodd" d="M14.3652 2.63196H16.804L17.6606 4.58281V2.63196H20.6715L21.1907 4.09353L21.7117 2.63196H24.0108V8.33335H11.8604L14.3652 2.63196Z" fill="#FFFFFE"/>
<g id="Group_2">
<path id="Vector_6" fill-rule="evenodd" clip-rule="evenodd" d="M14.8266 3.2514L12.8584 7.69658H14.2083L14.5796 6.80641H16.5916L16.9626 7.69658H18.3461L16.3861 3.2514H14.8266ZM14.9957 5.80884L15.5859 4.39377L16.1757 5.80884H14.9957Z" fill="#016FD0"/>
<path id="Vector_7" fill-rule="evenodd" clip-rule="evenodd" d="M18.3281 7.69575V3.25067L20.2256 3.25721L21.202 5.98994L22.1847 3.25067H24.0109V7.69575L22.8357 7.70619V4.65284L21.7265 7.69575H20.6539L19.5216 4.64241V7.69575H18.3281Z" fill="#016FD0"/>
</g>
</g>
</svg>
