<svg width="12" height="12" viewBox="0 0 12 12" fill="none" xmlns="http://www.w3.org/2000/svg">
<path d="M11.2286 0.771447C11.0333 0.576184 10.7167 0.576184 10.5214 0.771447L6 5.29289L1.47855 0.771447C1.28329 0.576184 0.966709 0.576184 0.771447 0.771447C0.576184 0.966709 0.576184 1.28329 0.771447 1.47855L5.29289 6L0.771447 10.5214C0.576184 10.7167 0.576184 11.0333 0.771447 11.2286C0.966709 11.4238 1.28329 11.4238 1.47855 11.2286L6 6.70711L10.5214 11.2286C10.7167 11.4238 11.0333 11.4238 11.2286 11.2286C11.4238 11.0333 11.4238 10.7167 11.2286 10.5214L6.70711 6L11.2286 1.47855C11.4238 1.28329 11.4238 0.966709 11.2286 0.771447Z" stroke="#424B5C" stroke-linecap="round" stroke-linejoin="round"/>
</svg>
