<svg width="24" height="16" viewBox="0 0 24 16" fill="none" xmlns="http://www.w3.org/2000/svg">
<g id="Frame" clip-path="url(#clip0_7282_1205)">
<path id="shape" opacity="0.2" d="M16.0082 0.567383H1.54947C0.873547 0.567383 0.0800781 1.34616 0.0800781 2.03677V13.0572C0.0800781 13.7478 0.873547 14.5266 1.54947 14.5266H19.9168C20.5927 14.5266 21.3862 13.7478 21.3862 13.0572V7.52493C20.7673 8.08168 20.0029 8.45113 19.1821 8.59024V8.64902C19.1821 9.13391 18.9176 9.38371 18.4474 9.38371H2.28416C1.81396 9.38371 1.54947 9.13391 1.54947 8.64902V7.91432C1.54947 7.42942 1.81396 7.17963 2.28416 7.17963H15.1633C14.7392 6.70963 14.4217 6.15353 14.2325 5.54941C14.0433 4.94528 13.9869 4.30741 14.0671 3.67945C14.1474 3.0515 14.3624 2.4483 14.6974 1.91117C15.0324 1.37403 15.4796 0.915639 16.0082 0.567383V0.567383Z" fill="#94A7CB"/>
<path id="shape_2" d="M14.2891 2.77148H0.0800781V4.97557H14.098C13.9746 4.23653 14.0403 3.47827 14.2891 2.77148Z" fill="#94A7CB"/>
</g>
<defs>
<clipPath id="clip0_7282_1205">
<rect width="23.5102" height="15.4286" fill="white" transform="translate(0.0800781 0.567383)"/>
</clipPath>
</defs>
</svg>
